<!-- icon666.com - MILLIONS OF FREE VECTOR ICONS --><svg id="Layer_1" enable-background="new 0 0 512.019 512.019" viewBox="0 0 512.019 512.019" xmlns="http://www.w3.org/2000/svg"><path d="m507.234 299.219-48.607-47.933 47.933-48.607c6.204-6.292 6.134-16.422-.158-22.627-6.293-6.206-16.424-6.134-22.627.158l-47.933 48.607-48.607-47.933c-6.293-6.206-16.424-6.134-22.627.158-6.204 6.292-6.134 16.422.158 22.627l48.607 47.933-47.933 48.608c-9.974 10.115-2.704 27.234 11.392 27.234 4.133 0 8.263-1.591 11.394-4.766l47.933-48.607 48.607 47.933c3.117 3.074 7.177 4.607 11.233 4.607 14.18.001 21.455-17.313 11.235-27.392z"></path><path d="m48 143.945h48v224h-48c-26.47 0-48-21.53-48-48v-128c0-26.47 21.53-48 48-48z"></path><path d="m328 57.315v397.48c0 41.741-31.43 65.064-58.6 54.61-9.232-3.552-1.514 1.856-141.4-118.74v-268.49l128.97-111.91c29.433-25.531 71.03-.27 71.03 47.05z"></path></svg>